<svg width="100.000000" height="100.000000" viewBox="0 0 100 100" fill="none" xmlns="http://www.w3.org/2000/svg" xmlns:xlink="http://www.w3.org/1999/xlink">
	<desc>
			Created with Pixso.
	</desc>
	<defs>
		<clipPath id="clip3394_191">
			<rect id="Frame 16" width="100.000000" height="100.000000" fill="white" fill-opacity="0"/>
		</clipPath>
	</defs>
	<g clip-path="url(#clip3394_191)">
		<path id="Vector" d="M36.19 63.44L35.41 58.81M32.39 40.98L31.17 33.81L47.76 26.06L61.25 25.51L75.41 33.99L79.35 41.07M82 58.81L80 62.26L76.46 62.07L73.86 66.04L68.56 65.76L66.23 68.6L60.37 71.06L53.02 63.3L47.9 61.5L43.81 65.1L26.22 61.12L25.29 58.81M24.44 40.92L24.55 40.49L31.17 33.81" stroke="#9D61FF" stroke-opacity="1.000000" stroke-width="1.000000"/>
		<path id="Vector" d="M36.92 40.98L41.77 36.04L48.28 26.04L72.5 41M77.82 58.81L76.46 62.07L68 59.5M52.49 40.97L52.33 40.75L47.76 26.06" stroke="#9D61FF" stroke-opacity="1.000000" stroke-width="1.000000"/>
		<path id="Vector" d="M60.87 40.93L62.86 34.95L75.41 33.99L72 41" stroke="#9D61FF" stroke-opacity="1.000000" stroke-width="1.000000"/>
		<path id="Vector" d="M61.25 25.51L62.72 35.37L65.85 41.1M77.48 58.81L80 62.26" stroke="#9D61FF" stroke-opacity="1.000000" stroke-width="1.000000"/>
		<path id="Vector" d="M31.17 33.81L41.76 36.04L62.64 34.82" stroke="#9D61FF" stroke-opacity="1.000000" stroke-width="1.000000"/>
		<path id="Vector" d="M41.26 35.93L52.33 40.75L62.26 34.58" stroke="#9D61FF" stroke-opacity="1.000000" stroke-width="1.000000"/>
		<path id="Vector" d="M41.26 35.93L43.84 40.92M51.94 40.97L52.33 40.75" stroke="#9D61FF" stroke-opacity="1.000000" stroke-width="1.000000"/>
		<path id="Vector" d="M43.81 65.1L41.74 58.86M45.25 58.86L47.9 61.5L50.22 58.7" stroke="#9D61FF" stroke-opacity="1.000000" stroke-width="1.000000"/>
		<path id="Vector" d="M56.38 58.86L59.4 63.28L66.23 68.6" stroke="#9D61FF" stroke-opacity="1.000000" stroke-width="1.000000"/>
		<path id="Vector" d="M60.37 71.06L59.4 63.28L68 59.5" stroke="#9D61FF" stroke-opacity="1.000000" stroke-width="1.000000"/>
		<path id="Vector" d="M59 58.86L59.4 63.28" stroke="#9D61FF" stroke-opacity="1.000000" stroke-width="1.000000"/>
		<path id="Vector" d="M68.56 65.76L67.94 58.81" stroke="#9D61FF" stroke-opacity="1.000000" stroke-width="1.000000"/>
		<path id="Vector" d="M68 59L74 66" stroke="#9D61FF" stroke-opacity="1.000000" stroke-width="1.000000"/>
		<path id="Vector" d="M53.29 58.86L53.02 63.3L59.4 63.28" stroke="#9D61FF" stroke-opacity="1.000000" stroke-width="1.000000"/>
		<path id="Vector" d="M44 65L35 59" stroke="#9D61FF" stroke-opacity="1.000000" stroke-width="1.000000"/>
		<path id="Vector" d="M26.22 61.12L27.2 58.81M25.37 40.92L24.55 40.49" stroke="#9D61FF" stroke-opacity="1.000000" stroke-width="1.000000"/>
		<path id="Vector" d="M69.28 73.56L60.37 71.06L64.48 75L69.28 73.56L66.23 68.6L64.83 71.8L64.48 75" stroke="#9D61FF" stroke-opacity="1.000000" stroke-width="1.000000"/>
		<path id="Vector" d="M24.55 39.92C24.86 39.92 25.1 40.18 25.1 40.49C25.1 40.66 25.03 40.81 24.91 40.92L24.19 40.92C24.07 40.81 24 40.66 24 40.49C24 40.18 24.24 39.92 24.55 39.92Z" fill="#9D61FF" fill-opacity="1.000000" fill-rule="evenodd"/>
		<path id="Vector" d="M25.1 40.49C25.1 40.66 25.03 40.81 24.91 40.92L24.19 40.92C24.07 40.81 24 40.66 24 40.49C24 40.18 24.24 39.92 24.55 39.92C24.86 39.92 25.1 40.18 25.1 40.49Z" stroke="#9D61FF" stroke-opacity="1.000000" stroke-width="1.000000"/>
		<path id="Vector" d="M26.22 60.56C26.53 60.56 26.78 60.81 26.78 61.12C26.78 61.43 26.53 61.69 26.22 61.69C25.92 61.69 25.67 61.43 25.67 61.12C25.67 60.81 25.92 60.56 26.22 60.56Z" fill="#9D61FF" fill-opacity="1.000000" fill-rule="evenodd"/>
		<path id="Vector" d="M26.78 61.12C26.78 61.43 26.53 61.69 26.22 61.69C25.92 61.69 25.67 61.43 25.67 61.12C25.67 60.81 25.92 60.56 26.22 60.56C26.53 60.56 26.78 60.81 26.78 61.12Z" stroke="#9D61FF" stroke-opacity="1.000000" stroke-width="1.000000"/>
		<path id="Vector" d="M36.19 62.87C36.5 62.87 36.75 63.13 36.75 63.44C36.75 63.75 36.5 64 36.19 64C35.89 64 35.64 63.75 35.64 63.44C35.64 63.13 35.89 62.87 36.19 62.87Z" fill="#9D61FF" fill-opacity="1.000000" fill-rule="evenodd"/>
		<path id="Vector" d="M36.75 63.44C36.75 63.75 36.5 64 36.19 64C35.89 64 35.64 63.75 35.64 63.44C35.64 63.13 35.89 62.87 36.19 62.87C36.5 62.87 36.75 63.13 36.75 63.44Z" stroke="#9D61FF" stroke-opacity="1.000000" stroke-width="1.000000"/>
		<path id="Vector" d="M43.81 64.53C44.11 64.53 44.36 64.78 44.36 65.1C44.36 65.41 44.11 65.66 43.81 65.66C43.5 65.66 43.25 65.41 43.25 65.1C43.25 64.78 43.5 64.53 43.81 64.53Z" fill="#9D61FF" fill-opacity="1.000000" fill-rule="evenodd"/>
		<path id="Vector" d="M44.36 65.1C44.36 65.41 44.11 65.66 43.81 65.66C43.5 65.66 43.25 65.41 43.25 65.1C43.25 64.78 43.5 64.53 43.81 64.53C44.11 64.53 44.36 64.78 44.36 65.1Z" stroke="#9D61FF" stroke-opacity="1.000000" stroke-width="1.000000"/>
		<path id="Vector" d="M47.9 60.94C48.21 60.94 48.46 61.19 48.46 61.5C48.46 61.81 48.21 62.06 47.9 62.06C47.59 62.06 47.35 61.81 47.35 61.5C47.35 61.19 47.59 60.94 47.9 60.94Z" fill="#9D61FF" fill-opacity="1.000000" fill-rule="evenodd"/>
		<path id="Vector" d="M48.46 61.5C48.46 61.81 48.21 62.06 47.9 62.06C47.59 62.06 47.35 61.81 47.35 61.5C47.35 61.19 47.59 60.94 47.9 60.94C48.21 60.94 48.46 61.19 48.46 61.5Z" stroke="#9D61FF" stroke-opacity="1.000000" stroke-width="1.000000"/>
		<path id="Vector" d="M53.02 62.73C53.33 62.73 53.57 62.99 53.57 63.3C53.57 63.61 53.33 63.86 53.02 63.86C52.71 63.86 52.46 63.61 52.46 63.3C52.46 62.99 52.71 62.73 53.02 62.73Z" fill="#9D61FF" fill-opacity="1.000000" fill-rule="evenodd"/>
		<path id="Vector" d="M53.57 63.3C53.57 63.61 53.33 63.86 53.02 63.86C52.71 63.86 52.46 63.61 52.46 63.3C52.46 62.99 52.71 62.73 53.02 62.73C53.33 62.73 53.57 62.99 53.57 63.3Z" stroke="#9D61FF" stroke-opacity="1.000000" stroke-width="1.000000"/>
		<path id="Vector" d="M60.37 70.49C60.67 70.49 60.92 70.75 60.92 71.06C60.92 71.37 60.67 71.62 60.37 71.62C60.06 71.62 59.81 71.37 59.81 71.06C59.81 70.75 60.06 70.49 60.37 70.49Z" fill="#9D61FF" fill-opacity="1.000000" fill-rule="evenodd"/>
		<path id="Vector" d="M60.92 71.06C60.92 71.37 60.67 71.62 60.37 71.62C60.06 71.62 59.81 71.37 59.81 71.06C59.81 70.75 60.06 70.49 60.37 70.49C60.67 70.49 60.92 70.75 60.92 71.06Z" stroke="#9D61FF" stroke-opacity="1.000000" stroke-width="1.000000"/>
		<path id="Vector" d="M59.4 62.71C59.71 62.71 59.96 62.96 59.96 63.28C59.96 63.59 59.71 63.84 59.4 63.84C59.09 63.84 58.85 63.59 58.85 63.28C58.85 62.96 59.09 62.71 59.4 62.71Z" fill="#9D61FF" fill-opacity="1.000000" fill-rule="evenodd"/>
		<path id="Vector" d="M59.96 63.28C59.96 63.59 59.71 63.84 59.4 63.84C59.09 63.84 58.85 63.59 58.85 63.28C58.85 62.96 59.09 62.71 59.4 62.71C59.71 62.71 59.96 62.96 59.96 63.28Z" stroke="#9D61FF" stroke-opacity="1.000000" stroke-width="1.000000"/>
		<path id="Vector" d="M52.33 40.18C52.64 40.18 52.89 40.44 52.89 40.75C52.89 40.83 52.87 40.91 52.84 40.97L51.83 40.97C51.8 40.91 51.78 40.83 51.78 40.75C51.78 40.44 52.03 40.18 52.33 40.18L52.33 40.18Z" fill="#9D61FF" fill-opacity="1.000000" fill-rule="evenodd"/>
		<path id="Vector" d="M52.89 40.75C52.89 40.83 52.87 40.91 52.84 40.97L51.83 40.97C51.8 40.91 51.78 40.83 51.78 40.75C51.78 40.44 52.03 40.18 52.33 40.18L52.33 40.18C52.64 40.18 52.89 40.44 52.89 40.75Z" stroke="#9D61FF" stroke-opacity="1.000000" stroke-width="1.000000"/>
		<path id="Vector" d="M41.77 35.48C42.07 35.48 42.32 35.73 42.32 36.04C42.32 36.35 42.07 36.61 41.77 36.61C41.46 36.61 41.21 36.35 41.21 36.04C41.21 35.73 41.46 35.48 41.77 35.48Z" fill="#9D61FF" fill-opacity="1.000000" fill-rule="evenodd"/>
		<path id="Vector" d="M42.32 36.04C42.32 36.35 42.07 36.61 41.77 36.61C41.46 36.61 41.21 36.35 41.21 36.04C41.21 35.73 41.46 35.48 41.77 35.48C42.07 35.48 42.32 35.73 42.32 36.04Z" stroke="#9D61FF" stroke-opacity="1.000000" stroke-width="1.000000"/>
		<path id="Vector" d="M31.17 33.24C31.48 33.24 31.73 33.5 31.73 33.81C31.73 34.12 31.48 34.37 31.17 34.37C30.87 34.37 30.62 34.12 30.62 33.81C30.62 33.5 30.87 33.24 31.17 33.24Z" fill="#9D61FF" fill-opacity="1.000000" fill-rule="evenodd"/>
		<path id="Vector" d="M31.73 33.81C31.73 34.12 31.48 34.37 31.17 34.37C30.87 34.37 30.62 34.12 30.62 33.81C30.62 33.5 30.87 33.24 31.17 33.24C31.48 33.24 31.73 33.5 31.73 33.81Z" stroke="#9D61FF" stroke-opacity="1.000000" stroke-width="1.000000"/>
		<path id="Vector" d="M47.76 25.5C48.07 25.5 48.32 25.75 48.32 26.06C48.32 26.37 48.07 26.62 47.76 26.62C47.45 26.62 47.21 26.37 47.21 26.06C47.21 25.75 47.45 25.5 47.76 25.5Z" fill="#9D61FF" fill-opacity="1.000000" fill-rule="evenodd"/>
		<path id="Vector" d="M48.32 26.06C48.32 26.37 48.07 26.62 47.76 26.62C47.45 26.62 47.21 26.37 47.21 26.06C47.21 25.75 47.45 25.5 47.76 25.5C48.07 25.5 48.32 25.75 48.32 26.06Z" stroke="#9D61FF" stroke-opacity="1.000000" stroke-width="1.000000"/>
		<path id="Vector" d="M61.07 25C61.37 25 61.62 25.25 61.62 25.56C61.62 25.87 61.37 26.12 61.07 26.12C60.76 26.12 60.51 25.87 60.51 25.56C60.51 25.25 60.76 25 61.07 25Z" fill="#9D61FF" fill-opacity="1.000000" fill-rule="evenodd"/>
		<path id="Vector" d="M61.62 25.56C61.62 25.87 61.37 26.12 61.07 26.12C60.76 26.12 60.51 25.87 60.51 25.56C60.51 25.25 60.76 25 61.07 25C61.37 25 61.62 25.25 61.62 25.56Z" stroke="#9D61FF" stroke-opacity="1.000000" stroke-width="1.000000"/>
		<path id="Vector" d="M62.64 34.25C62.95 34.25 63.19 34.5 63.19 34.82C63.19 35.13 62.95 35.38 62.64 35.38C62.33 35.38 62.08 35.13 62.08 34.82C62.08 34.5 62.33 34.25 62.64 34.25Z" fill="#9D61FF" fill-opacity="1.000000" fill-rule="evenodd"/>
		<path id="Vector" d="M63.19 34.82C63.19 35.13 62.95 35.38 62.64 35.38C62.33 35.38 62.08 35.13 62.08 34.82C62.08 34.5 62.33 34.25 62.64 34.25C62.95 34.25 63.19 34.5 63.19 34.82Z" stroke="#9D61FF" stroke-opacity="1.000000" stroke-width="1.000000"/>
		<path id="Vector" d="M75.41 33.42C75.72 33.42 75.97 33.68 75.97 33.99C75.97 34.3 75.72 34.55 75.41 34.55C75.1 34.55 74.86 34.3 74.86 33.99C74.86 33.68 75.1 33.42 75.41 33.42Z" fill="#9D61FF" fill-opacity="1.000000" fill-rule="evenodd"/>
		<path id="Vector" d="M75.97 33.99C75.97 34.3 75.72 34.55 75.41 34.55C75.1 34.55 74.86 34.3 74.86 33.99C74.86 33.68 75.1 33.42 75.41 33.42C75.72 33.42 75.97 33.68 75.97 33.99Z" stroke="#9D61FF" stroke-opacity="1.000000" stroke-width="1.000000"/>
		<path id="Vector" d="M80 61.69C80.31 61.69 80.55 61.95 80.55 62.26C80.55 62.57 80.31 62.82 80 62.82C79.69 62.82 79.44 62.57 79.44 62.26C79.44 61.95 79.69 61.69 80 61.69Z" fill="#9D61FF" fill-opacity="1.000000" fill-rule="evenodd"/>
		<path id="Vector" d="M80.55 62.26C80.55 62.57 80.31 62.82 80 62.82C79.69 62.82 79.44 62.57 79.44 62.26C79.44 61.95 79.69 61.69 80 61.69C80.31 61.69 80.55 61.95 80.55 62.26Z" stroke="#9D61FF" stroke-opacity="1.000000" stroke-width="1.000000"/>
		<path id="Vector" d="M73.86 65.48C74.16 65.48 74.41 65.73 74.41 66.04C74.41 66.35 74.16 66.61 73.86 66.61C73.55 66.61 73.3 66.35 73.3 66.04C73.3 65.73 73.55 65.48 73.86 65.48Z" fill="#9D61FF" fill-opacity="1.000000" fill-rule="evenodd"/>
		<path id="Vector" d="M74.41 66.04C74.41 66.35 74.16 66.61 73.86 66.61C73.55 66.61 73.3 66.35 73.3 66.04C73.3 65.73 73.55 65.48 73.86 65.48C74.16 65.48 74.41 65.73 74.41 66.04Z" stroke="#9D61FF" stroke-opacity="1.000000" stroke-width="1.000000"/>
		<path id="Vector" d="M68.56 65.19C68.86 65.19 69.11 65.45 69.11 65.76C69.11 66.07 68.86 66.32 68.56 66.32C68.25 66.32 68 66.07 68 65.76C68 65.45 68.25 65.19 68.56 65.19Z" fill="#9D61FF" fill-opacity="1.000000" fill-rule="evenodd"/>
		<path id="Vector" d="M69.11 65.76C69.11 66.07 68.86 66.32 68.56 66.32C68.25 66.32 68 66.07 68 65.76C68 65.45 68.25 65.19 68.56 65.19C68.86 65.19 69.11 65.45 69.11 65.76Z" stroke="#9D61FF" stroke-opacity="1.000000" stroke-width="1.000000"/>
		<path id="Vector" d="M64.48 74.43C64.78 74.43 65.03 74.68 65.03 75C65.03 75.31 64.78 75.56 64.48 75.56C64.17 75.56 63.92 75.31 63.92 75C63.92 74.68 64.17 74.43 64.48 74.43Z" fill="#9D61FF" fill-opacity="1.000000" fill-rule="evenodd"/>
		<path id="Vector" d="M65.03 75C65.03 75.31 64.78 75.56 64.48 75.56C64.17 75.56 63.92 75.31 63.92 75C63.92 74.68 64.17 74.43 64.48 74.43C64.78 74.43 65.03 74.68 65.03 75Z" stroke="#9D61FF" stroke-opacity="1.000000" stroke-width="1.000000"/>
		<path id="Vector" d="M69.28 72.99C69.59 72.99 69.84 73.25 69.84 73.56C69.84 73.87 69.59 74.12 69.28 74.12C68.98 74.12 68.73 73.87 68.73 73.56C68.73 73.25 68.98 72.99 69.28 72.99Z" fill="#9D61FF" fill-opacity="1.000000" fill-rule="evenodd"/>
		<path id="Vector" d="M69.84 73.56C69.84 73.87 69.59 74.12 69.28 74.12C68.98 74.12 68.73 73.87 68.73 73.56C68.73 73.25 68.98 72.99 69.28 72.99C69.59 72.99 69.84 73.25 69.84 73.56Z" stroke="#9D61FF" stroke-opacity="1.000000" stroke-width="1.000000"/>
		<path id="Vector" d="M64.77 71.73C65.08 71.73 65.33 71.98 65.33 72.29C65.33 72.6 65.08 72.86 64.77 72.86C64.46 72.86 64.22 72.6 64.22 72.29C64.22 71.98 64.46 71.73 64.77 71.73Z" fill="#9D61FF" fill-opacity="1.000000" fill-rule="evenodd"/>
		<path id="Vector" d="M65.33 72.29C65.33 72.6 65.08 72.86 64.77 72.86C64.46 72.86 64.22 72.6 64.22 72.29C64.22 71.98 64.46 71.73 64.77 71.73C65.08 71.73 65.33 71.98 65.33 72.29Z" stroke="#9D61FF" stroke-opacity="1.000000" stroke-width="1.000000"/>
		<path id="Vector" d="M66.23 68.03C66.54 68.03 66.78 68.29 66.78 68.6C66.78 68.91 66.54 69.16 66.23 69.16C65.92 69.16 65.67 68.91 65.67 68.6C65.67 68.29 65.92 68.03 66.23 68.03Z" fill="#9D61FF" fill-opacity="1.000000" fill-rule="evenodd"/>
		<path id="Vector" d="M66.78 68.6C66.78 68.91 66.54 69.16 66.23 69.16C65.92 69.16 65.67 68.91 65.67 68.6C65.67 68.29 65.92 68.03 66.23 68.03C66.54 68.03 66.78 68.29 66.78 68.6Z" stroke="#9D61FF" stroke-opacity="1.000000" stroke-width="1.000000"/>
		<path id="IBRAIN" d="M26.39 57L26.39 43.16L23.46 43.16L23.46 57L26.39 57ZM38.69 50.69Q37.82 49.93 36.41 49.68Q37.16 49.5 37.73 49.09Q37.99 48.9 38.22 48.66Q38.4 48.48 38.54 48.26Q38.95 47.61 38.95 46.7Q38.95 45.62 38.45 44.89Q38.09 44.35 37.46 44Q35.96 43.16 33.11 43.16L29.34 43.16L29.34 57L33.66 57Q36.43 57 37.99 56.08Q38.49 55.78 38.83 55.36Q39.55 54.46 39.55 52.98Q39.55 51.61 38.88 50.87Q38.79 50.77 38.69 50.69ZM44.57 51.58L46.07 51.58L49.04 57L55.34 57L56.12 53.89L60.45 53.89L61.23 57L64.35 57L60.12 43.16L56.54 43.16L52.31 56.88L48.79 51.03Q50.19 50.41 50.86 49.53Q50.89 49.5 50.92 49.46Q51.54 48.6 51.54 47.29Q51.54 45.81 50.82 44.86Q50.54 44.48 50.14 44.19Q48.73 43.16 45.96 43.16L41.64 43.16L41.64 57L44.57 57L44.57 51.58ZM68.57 57L68.57 43.16L65.64 43.16L65.64 57L68.57 57ZM78.18 57L81.95 57L81.95 43.16L79.29 43.16L79.29 49.24Q79.29 51.48 79.69 54.15L75.22 43.16L71.51 43.16L71.51 57L74.18 57L74.18 51.61Q74.18 49.93 74.06 48.68Q73.96 47.43 73.78 46.01L78.18 57ZM46.12 49.5L44.57 49.5L44.57 45.26L45.89 45.26Q47.24 45.26 47.87 45.75Q47.97 45.82 48.05 45.92Q48.5 46.41 48.5 47.29Q48.5 48.38 47.95 48.91Q47.92 48.94 47.89 48.97Q47.29 49.5 46.12 49.5ZM32.27 48.78L32.27 45.28L33.39 45.28Q34.72 45.28 35.34 45.66Q35.5 45.76 35.62 45.89Q35.96 46.27 35.96 46.96Q35.96 47.66 35.61 48.09Q35.51 48.22 35.38 48.33Q34.79 48.78 33.71 48.78L32.27 48.78ZM59.9 51.72L56.67 51.72L58.28 45.33L59.9 51.72ZM35.77 54.41Q35.05 54.82 33.68 54.82L32.27 54.82L32.27 50.77L33.93 50.77Q35.48 50.77 36.09 51.53Q36.49 52.03 36.49 52.85Q36.49 53.76 36.04 54.2Q35.92 54.32 35.77 54.41Z" fill="#FFFFFF" fill-opacity="1.000000" fill-rule="evenodd"/>
	</g>
</svg>
