<svg width="62.000000" height="52.000000" viewBox="0 0 62 52" fill="none" xmlns="http://www.w3.org/2000/svg" xmlns:xlink="http://www.w3.org/1999/xlink">
	<desc>
			Created with Pixso.
	</desc>
	<defs/>
	<path id="Vector" d="M14.19 38.44L13.41 33.81M10.39 15.98L9.17 8.81L25.76 1.06L39.25 0.51L53.41 8.99L57.35 16.07M60 33.81L58 37.26L54.46 37.07L51.86 41.04L46.56 40.76L44.23 43.6L38.37 46.06L31.02 38.3L25.9 36.5L21.81 40.1L4.22 36.12L3.29 33.81M2.44 15.92L2.55 15.49L9.17 8.81" stroke="#9D61FF" stroke-opacity="1.000000" stroke-width="1.000000"/>
	<path id="Vector" d="M14.92 15.98L19.77 11.04L26.28 1.04L50.5 16M55.82 33.81L54.46 37.07L46 34.5M30.49 15.97L30.33 15.75L25.76 1.06" stroke="#9D61FF" stroke-opacity="1.000000" stroke-width="1.000000"/>
	<path id="Vector" d="M38.87 15.93L40.86 9.95L53.41 8.99L50 16" stroke="#9D61FF" stroke-opacity="1.000000" stroke-width="1.000000"/>
	<path id="Vector" d="M39.25 0.51L40.72 10.37L43.85 16.1M55.48 33.81L58 37.26" stroke="#9D61FF" stroke-opacity="1.000000" stroke-width="1.000000"/>
	<path id="Vector" d="M9.17 8.81L19.76 11.04L40.64 9.82" stroke="#9D61FF" stroke-opacity="1.000000" stroke-width="1.000000"/>
	<path id="Vector" d="M19.26 10.93L30.33 15.75L40.26 9.58" stroke="#9D61FF" stroke-opacity="1.000000" stroke-width="1.000000"/>
	<path id="Vector" d="M19.26 10.93L21.84 15.92M29.94 15.97L30.33 15.75" stroke="#9D61FF" stroke-opacity="1.000000" stroke-width="1.000000"/>
	<path id="Vector" d="M21.81 40.1L19.74 33.86M23.25 33.86L25.9 36.5L28.22 33.7" stroke="#9D61FF" stroke-opacity="1.000000" stroke-width="1.000000"/>
	<path id="Vector" d="M34.38 33.86L37.4 38.28L44.23 43.6" stroke="#9D61FF" stroke-opacity="1.000000" stroke-width="1.000000"/>
	<path id="Vector" d="M38.37 46.06L37.4 38.28L46 34.5" stroke="#9D61FF" stroke-opacity="1.000000" stroke-width="1.000000"/>
	<path id="Vector" d="M37 33.86L37.4 38.28" stroke="#9D61FF" stroke-opacity="1.000000" stroke-width="1.000000"/>
	<path id="Vector" d="M46.56 40.76L45.94 33.81" stroke="#9D61FF" stroke-opacity="1.000000" stroke-width="1.000000"/>
	<path id="Vector" d="M46 34L52 41" stroke="#9D61FF" stroke-opacity="1.000000" stroke-width="1.000000"/>
	<path id="Vector" d="M31.29 33.86L31.02 38.3L37.4 38.28" stroke="#9D61FF" stroke-opacity="1.000000" stroke-width="1.000000"/>
	<path id="Vector" d="M22 40L13 34" stroke="#9D61FF" stroke-opacity="1.000000" stroke-width="1.000000"/>
	<path id="Vector" d="M4.22 36.12L5.2 33.81M3.37 15.92L2.55 15.49" stroke="#9D61FF" stroke-opacity="1.000000" stroke-width="1.000000"/>
	<path id="Vector" d="M47.28 48.56L38.37 46.06L42.48 50L47.28 48.56L44.23 43.6L42.83 46.8L42.48 50" stroke="#9D61FF" stroke-opacity="1.000000" stroke-width="1.000000"/>
	<path id="Vector" d="M2.55 14.93C2.86 14.93 3.1 15.18 3.1 15.49C3.1 15.66 3.03 15.81 2.91 15.92L2.19 15.92C2.07 15.81 2 15.66 2 15.49C2 15.18 2.24 14.93 2.55 14.93Z" fill="#9D61FF" fill-opacity="1.000000" fill-rule="evenodd"/>
	<path id="Vector" d="M3.1 15.49C3.1 15.66 3.03 15.81 2.91 15.92L2.19 15.92C2.07 15.81 2 15.66 2 15.49C2 15.18 2.24 14.93 2.55 14.93C2.86 14.93 3.1 15.18 3.1 15.49Z" stroke="#9D61FF" stroke-opacity="1.000000" stroke-width="1.000000"/>
	<path id="Vector" d="M4.22 35.56C4.53 35.56 4.78 35.81 4.78 36.12C4.78 36.43 4.53 36.69 4.22 36.69C3.92 36.69 3.67 36.43 3.67 36.12C3.67 35.81 3.92 35.56 4.22 35.56Z" fill="#9D61FF" fill-opacity="1.000000" fill-rule="evenodd"/>
	<path id="Vector" d="M4.78 36.12C4.78 36.43 4.53 36.69 4.22 36.69C3.92 36.69 3.67 36.43 3.67 36.12C3.67 35.81 3.92 35.56 4.22 35.56C4.53 35.56 4.78 35.81 4.78 36.12Z" stroke="#9D61FF" stroke-opacity="1.000000" stroke-width="1.000000"/>
	<path id="Vector" d="M14.19 37.87C14.5 37.87 14.75 38.13 14.75 38.44C14.75 38.75 14.5 39 14.19 39C13.89 39 13.64 38.75 13.64 38.44C13.64 38.13 13.89 37.87 14.19 37.87Z" fill="#9D61FF" fill-opacity="1.000000" fill-rule="evenodd"/>
	<path id="Vector" d="M14.75 38.44C14.75 38.75 14.5 39 14.19 39C13.89 39 13.64 38.75 13.64 38.44C13.64 38.13 13.89 37.87 14.19 37.87C14.5 37.87 14.75 38.13 14.75 38.44Z" stroke="#9D61FF" stroke-opacity="1.000000" stroke-width="1.000000"/>
	<path id="Vector" d="M21.81 39.53C22.11 39.53 22.36 39.78 22.36 40.1C22.36 40.41 22.11 40.66 21.81 40.66C21.5 40.66 21.25 40.41 21.25 40.1C21.25 39.78 21.5 39.53 21.81 39.53Z" fill="#9D61FF" fill-opacity="1.000000" fill-rule="evenodd"/>
	<path id="Vector" d="M22.36 40.1C22.36 40.41 22.11 40.66 21.81 40.66C21.5 40.66 21.25 40.41 21.25 40.1C21.25 39.78 21.5 39.53 21.81 39.53C22.11 39.53 22.36 39.78 22.36 40.1Z" stroke="#9D61FF" stroke-opacity="1.000000" stroke-width="1.000000"/>
	<path id="Vector" d="M25.9 35.94C26.21 35.94 26.46 36.19 26.46 36.5C26.46 36.81 26.21 37.06 25.9 37.06C25.59 37.06 25.35 36.81 25.35 36.5C25.35 36.19 25.59 35.94 25.9 35.94Z" fill="#9D61FF" fill-opacity="1.000000" fill-rule="evenodd"/>
	<path id="Vector" d="M26.46 36.5C26.46 36.81 26.21 37.06 25.9 37.06C25.59 37.06 25.35 36.81 25.35 36.5C25.35 36.19 25.59 35.94 25.9 35.94C26.21 35.94 26.46 36.19 26.46 36.5Z" stroke="#9D61FF" stroke-opacity="1.000000" stroke-width="1.000000"/>
	<path id="Vector" d="M31.02 37.73C31.33 37.73 31.57 37.99 31.57 38.3C31.57 38.61 31.33 38.86 31.02 38.86C30.71 38.86 30.46 38.61 30.46 38.3C30.46 37.99 30.71 37.73 31.02 37.73Z" fill="#9D61FF" fill-opacity="1.000000" fill-rule="evenodd"/>
	<path id="Vector" d="M31.57 38.3C31.57 38.61 31.33 38.86 31.02 38.86C30.71 38.86 30.46 38.61 30.46 38.3C30.46 37.99 30.71 37.73 31.02 37.73C31.33 37.73 31.57 37.99 31.57 38.3Z" stroke="#9D61FF" stroke-opacity="1.000000" stroke-width="1.000000"/>
	<path id="Vector" d="M38.37 45.49C38.67 45.49 38.92 45.75 38.92 46.06C38.92 46.37 38.67 46.62 38.37 46.62C38.06 46.62 37.81 46.37 37.81 46.06C37.81 45.75 38.06 45.49 38.37 45.49Z" fill="#9D61FF" fill-opacity="1.000000" fill-rule="evenodd"/>
	<path id="Vector" d="M38.92 46.06C38.92 46.37 38.67 46.62 38.37 46.62C38.06 46.62 37.81 46.37 37.81 46.06C37.81 45.75 38.06 45.49 38.37 45.49C38.67 45.49 38.92 45.75 38.92 46.06Z" stroke="#9D61FF" stroke-opacity="1.000000" stroke-width="1.000000"/>
	<path id="Vector" d="M37.4 37.71C37.71 37.71 37.96 37.96 37.96 38.28C37.96 38.59 37.71 38.84 37.4 38.84C37.09 38.84 36.85 38.59 36.85 38.28C36.85 37.96 37.09 37.71 37.4 37.71Z" fill="#9D61FF" fill-opacity="1.000000" fill-rule="evenodd"/>
	<path id="Vector" d="M37.96 38.28C37.96 38.59 37.71 38.84 37.4 38.84C37.09 38.84 36.85 38.59 36.85 38.28C36.85 37.96 37.09 37.71 37.4 37.71C37.71 37.71 37.96 37.96 37.96 38.28Z" stroke="#9D61FF" stroke-opacity="1.000000" stroke-width="1.000000"/>
	<path id="Vector" d="M30.33 15.18C30.64 15.18 30.89 15.43 30.89 15.75C30.89 15.83 30.87 15.9 30.84 15.97L29.83 15.97C29.8 15.9 29.78 15.83 29.78 15.75C29.78 15.43 30.03 15.18 30.33 15.18L30.33 15.18Z" fill="#9D61FF" fill-opacity="1.000000" fill-rule="evenodd"/>
	<path id="Vector" d="M30.89 15.75C30.89 15.83 30.87 15.9 30.84 15.97L29.83 15.97C29.8 15.9 29.78 15.83 29.78 15.75C29.78 15.43 30.03 15.18 30.33 15.18L30.33 15.18C30.64 15.18 30.89 15.43 30.89 15.75Z" stroke="#9D61FF" stroke-opacity="1.000000" stroke-width="1.000000"/>
	<path id="Vector" d="M19.77 10.48C20.07 10.48 20.32 10.73 20.32 11.04C20.32 11.35 20.07 11.61 19.77 11.61C19.46 11.61 19.21 11.35 19.21 11.04C19.21 10.73 19.46 10.48 19.77 10.48Z" fill="#9D61FF" fill-opacity="1.000000" fill-rule="evenodd"/>
	<path id="Vector" d="M20.32 11.04C20.32 11.35 20.07 11.61 19.77 11.61C19.46 11.61 19.21 11.35 19.21 11.04C19.21 10.73 19.46 10.48 19.77 10.48C20.07 10.48 20.32 10.73 20.32 11.04Z" stroke="#9D61FF" stroke-opacity="1.000000" stroke-width="1.000000"/>
	<path id="Vector" d="M9.17 8.24C9.48 8.24 9.73 8.5 9.73 8.81C9.73 9.12 9.48 9.37 9.17 9.37C8.87 9.37 8.62 9.12 8.62 8.81C8.62 8.5 8.87 8.24 9.17 8.24Z" fill="#9D61FF" fill-opacity="1.000000" fill-rule="evenodd"/>
	<path id="Vector" d="M9.73 8.81C9.73 9.12 9.48 9.37 9.17 9.37C8.87 9.37 8.62 9.12 8.62 8.81C8.62 8.5 8.87 8.24 9.17 8.24C9.48 8.24 9.73 8.5 9.73 8.81Z" stroke="#9D61FF" stroke-opacity="1.000000" stroke-width="1.000000"/>
	<path id="Vector" d="M25.76 0.49C26.07 0.49 26.32 0.75 26.32 1.06C26.32 1.37 26.07 1.62 25.76 1.62C25.45 1.62 25.21 1.37 25.21 1.06C25.21 0.75 25.45 0.49 25.76 0.49Z" fill="#9D61FF" fill-opacity="1.000000" fill-rule="evenodd"/>
	<path id="Vector" d="M26.32 1.06C26.32 1.37 26.07 1.62 25.76 1.62C25.45 1.62 25.21 1.37 25.21 1.06C25.21 0.75 25.45 0.49 25.76 0.49C26.07 0.49 26.32 0.75 26.32 1.06Z" stroke="#9D61FF" stroke-opacity="1.000000" stroke-width="1.000000"/>
	<path id="Vector" d="M39.07 0C39.37 0 39.62 0.25 39.62 0.56C39.62 0.87 39.37 1.12 39.07 1.12C38.76 1.12 38.51 0.87 38.51 0.56C38.51 0.25 38.76 0 39.07 0Z" fill="#9D61FF" fill-opacity="1.000000" fill-rule="evenodd"/>
	<path id="Vector" d="M39.62 0.56C39.62 0.87 39.37 1.12 39.07 1.12C38.76 1.12 38.51 0.87 38.51 0.56C38.51 0.25 38.76 0 39.07 0C39.37 0 39.62 0.25 39.62 0.56Z" stroke="#9D61FF" stroke-opacity="1.000000" stroke-width="1.000000"/>
	<path id="Vector" d="M40.64 9.25C40.95 9.25 41.19 9.5 41.19 9.82C41.19 10.13 40.95 10.38 40.64 10.38C40.33 10.38 40.08 10.13 40.08 9.82C40.08 9.5 40.33 9.25 40.64 9.25Z" fill="#9D61FF" fill-opacity="1.000000" fill-rule="evenodd"/>
	<path id="Vector" d="M41.19 9.82C41.19 10.13 40.95 10.38 40.64 10.38C40.33 10.38 40.08 10.13 40.08 9.82C40.08 9.5 40.33 9.25 40.64 9.25C40.95 9.25 41.19 9.5 41.19 9.82Z" stroke="#9D61FF" stroke-opacity="1.000000" stroke-width="1.000000"/>
	<path id="Vector" d="M53.41 8.42C53.72 8.42 53.97 8.68 53.97 8.99C53.97 9.3 53.72 9.55 53.41 9.55C53.1 9.55 52.86 9.3 52.86 8.99C52.86 8.68 53.1 8.42 53.41 8.42Z" fill="#9D61FF" fill-opacity="1.000000" fill-rule="evenodd"/>
	<path id="Vector" d="M53.97 8.99C53.97 9.3 53.72 9.55 53.41 9.55C53.1 9.55 52.86 9.3 52.86 8.99C52.86 8.68 53.1 8.42 53.41 8.42C53.72 8.42 53.97 8.68 53.97 8.99Z" stroke="#9D61FF" stroke-opacity="1.000000" stroke-width="1.000000"/>
	<path id="Vector" d="M58 36.69C58.31 36.69 58.55 36.94 58.55 37.26C58.55 37.57 58.31 37.82 58 37.82C57.69 37.82 57.44 37.57 57.44 37.26C57.44 36.94 57.69 36.69 58 36.69Z" fill="#9D61FF" fill-opacity="1.000000" fill-rule="evenodd"/>
	<path id="Vector" d="M58.55 37.26C58.55 37.57 58.31 37.82 58 37.82C57.69 37.82 57.44 37.57 57.44 37.26C57.44 36.94 57.69 36.69 58 36.69C58.31 36.69 58.55 36.94 58.55 37.26Z" stroke="#9D61FF" stroke-opacity="1.000000" stroke-width="1.000000"/>
	<path id="Vector" d="M51.86 40.48C52.16 40.48 52.41 40.73 52.41 41.04C52.41 41.35 52.16 41.61 51.86 41.61C51.55 41.61 51.3 41.35 51.3 41.04C51.3 40.73 51.55 40.48 51.86 40.48Z" fill="#9D61FF" fill-opacity="1.000000" fill-rule="evenodd"/>
	<path id="Vector" d="M52.41 41.04C52.41 41.35 52.16 41.61 51.86 41.61C51.55 41.61 51.3 41.35 51.3 41.04C51.3 40.73 51.55 40.48 51.86 40.48C52.16 40.48 52.41 40.73 52.41 41.04Z" stroke="#9D61FF" stroke-opacity="1.000000" stroke-width="1.000000"/>
	<path id="Vector" d="M46.56 40.19C46.86 40.19 47.11 40.45 47.11 40.76C47.11 41.07 46.86 41.32 46.56 41.32C46.25 41.32 46 41.07 46 40.76C46 40.45 46.25 40.19 46.56 40.19Z" fill="#9D61FF" fill-opacity="1.000000" fill-rule="evenodd"/>
	<path id="Vector" d="M47.11 40.76C47.11 41.07 46.86 41.32 46.56 41.32C46.25 41.32 46 41.07 46 40.76C46 40.45 46.25 40.19 46.56 40.19C46.86 40.19 47.11 40.45 47.11 40.76Z" stroke="#9D61FF" stroke-opacity="1.000000" stroke-width="1.000000"/>
	<path id="Vector" d="M42.48 49.43C42.78 49.43 43.03 49.68 43.03 50C43.03 50.31 42.78 50.56 42.48 50.56C42.17 50.56 41.92 50.31 41.92 50C41.92 49.68 42.17 49.43 42.48 49.43Z" fill="#9D61FF" fill-opacity="1.000000" fill-rule="evenodd"/>
	<path id="Vector" d="M43.03 50C43.03 50.31 42.78 50.56 42.48 50.56C42.17 50.56 41.92 50.31 41.92 50C41.92 49.68 42.17 49.43 42.48 49.43C42.78 49.43 43.03 49.68 43.03 50Z" stroke="#9D61FF" stroke-opacity="1.000000" stroke-width="1.000000"/>
	<path id="Vector" d="M47.28 47.99C47.59 47.99 47.84 48.25 47.84 48.56C47.84 48.87 47.59 49.12 47.28 49.12C46.98 49.12 46.73 48.87 46.73 48.56C46.73 48.25 46.98 47.99 47.28 47.99Z" fill="#9D61FF" fill-opacity="1.000000" fill-rule="evenodd"/>
	<path id="Vector" d="M47.84 48.56C47.84 48.87 47.59 49.12 47.28 49.12C46.98 49.12 46.73 48.87 46.73 48.56C46.73 48.25 46.98 47.99 47.28 47.99C47.59 47.99 47.84 48.25 47.84 48.56Z" stroke="#9D61FF" stroke-opacity="1.000000" stroke-width="1.000000"/>
	<path id="Vector" d="M42.77 46.73C43.08 46.73 43.33 46.98 43.33 47.29C43.33 47.6 43.08 47.86 42.77 47.86C42.46 47.86 42.22 47.6 42.22 47.29C42.22 46.98 42.46 46.73 42.77 46.73Z" fill="#9D61FF" fill-opacity="1.000000" fill-rule="evenodd"/>
	<path id="Vector" d="M43.33 47.29C43.33 47.6 43.08 47.86 42.77 47.86C42.46 47.86 42.22 47.6 42.22 47.29C42.22 46.98 42.46 46.73 42.77 46.73C43.08 46.73 43.33 46.98 43.33 47.29Z" stroke="#9D61FF" stroke-opacity="1.000000" stroke-width="1.000000"/>
	<path id="Vector" d="M44.23 43.03C44.54 43.03 44.78 43.29 44.78 43.6C44.78 43.91 44.54 44.16 44.23 44.16C43.92 44.16 43.67 43.91 43.67 43.6C43.67 43.29 43.92 43.03 44.23 43.03Z" fill="#9D61FF" fill-opacity="1.000000" fill-rule="evenodd"/>
	<path id="Vector" d="M44.78 43.6C44.78 43.91 44.54 44.16 44.23 44.16C43.92 44.16 43.67 43.91 43.67 43.6C43.67 43.29 43.92 43.03 44.23 43.03C44.54 43.03 44.78 43.29 44.78 43.6Z" stroke="#9D61FF" stroke-opacity="1.000000" stroke-width="1.000000"/>
	<path id="IBRAIN" d="M4.39 32L4.39 18.16L1.45 18.16L1.45 32L4.39 32ZM16.69 25.69Q15.82 24.93 14.42 24.68Q15.16 24.5 15.73 24.09Q15.99 23.9 16.22 23.66Q16.4 23.48 16.54 23.26Q16.95 22.61 16.95 21.7Q16.95 20.62 16.45 19.89Q16.09 19.35 15.46 19Q13.96 18.16 11.11 18.16L7.33 18.16L7.33 32L11.66 32Q14.43 32 15.99 31.08Q16.49 30.78 16.83 30.36Q17.55 29.46 17.55 27.98Q17.55 26.61 16.88 25.87Q16.79 25.77 16.69 25.69ZM22.57 26.58L24.07 26.58L27.04 32L33.34 32L34.12 28.89L38.45 28.89L39.23 32L42.35 32L38.12 18.16L34.54 18.16L30.31 31.88L26.79 26.03Q28.19 25.41 28.86 24.53Q28.89 24.5 28.92 24.46Q29.54 23.6 29.54 22.29Q29.54 20.81 28.82 19.86Q28.54 19.48 28.14 19.19Q26.73 18.16 23.96 18.16L19.64 18.16L19.64 32L22.57 32L22.57 26.58ZM46.57 32L46.57 18.16L43.64 18.16L43.64 32L46.57 32ZM56.18 32L59.95 32L59.95 18.16L57.29 18.16L57.29 24.24Q57.29 26.48 57.69 29.15L53.22 18.16L49.52 18.16L49.52 32L52.18 32L52.18 26.61Q52.18 24.93 52.06 23.68Q51.96 22.43 51.78 21.01L56.18 32ZM24.12 24.5L22.57 24.5L22.57 20.26L23.89 20.26Q25.24 20.26 25.87 20.75Q25.97 20.82 26.05 20.92Q26.5 21.41 26.5 22.29Q26.5 23.38 25.95 23.91Q25.92 23.94 25.89 23.97Q25.29 24.5 24.12 24.5ZM10.27 23.78L10.27 20.28L11.39 20.28Q12.72 20.28 13.34 20.66Q13.5 20.76 13.62 20.89Q13.96 21.27 13.96 21.96Q13.96 22.66 13.61 23.09Q13.51 23.22 13.38 23.33Q12.79 23.78 11.71 23.78L10.27 23.78ZM37.9 26.72L34.67 26.72L36.28 20.33L37.9 26.72ZM13.77 29.41Q13.05 29.82 11.68 29.82L10.27 29.82L10.27 25.77L11.93 25.77Q13.48 25.77 14.09 26.53Q14.49 27.03 14.49 27.85Q14.49 28.76 14.04 29.2Q13.92 29.32 13.77 29.41Z" fill="#9D61FF" fill-opacity="1.000000" fill-rule="evenodd"/>
</svg>
