<svg width="24.000000" height="24.000000" viewBox="0 0 24 24" fill="none" xmlns="http://www.w3.org/2000/svg" xmlns:xlink="http://www.w3.org/1999/xlink">
	<desc>
			Created with Pixso.
	</desc>
	<defs/>
	<rect id="Iconly/Light/Message" width="24.000000" height="24.000000" fill="#FFFFFF" fill-opacity="0"/>
	<path id="Path_445" d="M17.26 9.06L13 12.49C12.19 13.12 11.06 13.12 10.25 12.49L5.95 9.06" stroke="#6D9C74" stroke-opacity="1.000000" stroke-width="1.500000" stroke-linejoin="round" stroke-linecap="round"/>
	<path id="Rectangle_511" d="M16.31 3.5C17.67 3.51 18.96 4.08 19.89 5.09C20.82 6.09 21.3 7.42 21.22 8.79L21.22 15.32C21.3 16.68 20.82 18.02 19.89 19.02C18.96 20.02 17.67 20.6 16.31 20.61L6.88 20.61C3.96 20.61 2 18.24 2 15.32L2 8.79C2 5.87 3.96 3.5 6.88 3.5L16.31 3.5Z" stroke="#6D9C74" stroke-opacity="1.000000" stroke-width="1.500000" stroke-linejoin="round"/>
</svg>
