<svg width="16.000000" height="16.000000" viewBox="0 0 16 16" fill="none" xmlns="http://www.w3.org/2000/svg" xmlns:xlink="http://www.w3.org/1999/xlink">
	<desc>
			Created with Pixso.
	</desc>
	<defs/>
	<rect id="Iconly/Light/Calling" width="16.000000" height="16.000000" fill="#FFFFFF" fill-opacity="0"/>
	<path id="Stroke 1" d="M4.19 1.66C4.44 1.68 4.66 1.83 4.83 2.01L4.83 2.01C5.24 2.41 6.41 3.92 6.48 4.23C6.64 5.01 5.71 5.46 6 6.25C6.72 8.02 7.97 9.27 9.74 9.99C10.53 10.28 10.98 9.35 11.76 9.51C12.07 9.58 13.58 10.75 13.98 11.15C14.16 11.33 14.31 11.55 14.33 11.8C14.36 12.67 13.01 13.85 12.75 14C12.13 14.45 11.32 14.44 10.33 13.98C7.58 12.83 3.18 8.52 2.01 5.66C1.56 4.68 1.53 3.86 1.99 3.24C2.2 2.89 3.36 1.62 4.19 1.66Z" stroke="#FFFFFF" stroke-opacity="1.000000" stroke-width="1.000000" stroke-linejoin="round"/>
	<path id="Path" d="M9.71 1.83C12.17 2.1 14.12 4.05 14.4 6.52" stroke="#FFFFFF" stroke-opacity="1.000000" stroke-width="1.000000" stroke-linejoin="round" stroke-linecap="round"/>
	<path id="Path" d="M9.71 4.19C10.89 4.42 11.81 5.34 12.04 6.52" stroke="#FFFFFF" stroke-opacity="1.000000" stroke-width="1.000000" stroke-linejoin="round" stroke-linecap="round"/>
</svg>
