<svg width="61.000000" height="61.000000" viewBox="0 0 61 61" fill="none" xmlns="http://www.w3.org/2000/svg" xmlns:xlink="http://www.w3.org/1999/xlink">
	<desc>
			Created with Pixso.
	</desc>
	<defs/>
	<path id="Vector" d="M45.75 5.54C44.91 5.54 44.03 5.65 43.12 5.82C40.06 2.26 35.54 0 30.5 0C25.45 0 20.93 2.26 17.88 5.82C16.96 5.65 16.08 5.54 15.25 5.54C6.84 5.54 0 12.38 0 20.79C0 26.55 3.25 31.79 8.35 34.38L8.32 55.33C8.32 56.84 8.91 58.27 9.97 59.34C11.04 60.41 12.46 61 13.98 61L47.02 61C50.14 61 52.68 58.46 52.68 55.34L52.68 34.36C57.76 31.76 61 26.53 61 20.79C61 12.38 54.15 5.54 45.75 5.54ZM49.9 55.34C49.9 56.93 48.61 58.22 47.02 58.22L13.98 58.22C13.2 58.22 12.48 57.92 11.93 57.38C11.39 56.83 11.09 56.11 11.09 55.33L11.1 49.9L49.9 49.9L49.9 55.34ZM50.76 32.2C50.69 32.23 50.62 32.27 50.56 32.31C50.38 32.42 50.24 32.56 50.13 32.73C50.02 32.89 49.95 33.08 49.92 33.28C49.91 33.36 49.9 33.44 49.9 33.52L49.9 47.13L11.1 47.13L11.12 33.53C11.12 33.46 11.12 33.38 11.11 33.31C11.08 33.1 11 32.9 10.89 32.73C10.78 32.57 10.64 32.44 10.48 32.33C10.41 32.29 10.33 32.25 10.26 32.22C5.71 30.23 2.77 25.75 2.77 20.79C2.77 13.91 8.36 8.31 15.25 8.31C15.51 8.31 15.8 8.35 16.08 8.37C14.67 10.81 13.86 13.62 13.86 16.63C13.86 17.4 14.48 18.02 15.25 18.02C16.01 18.02 16.63 17.4 16.63 16.63C16.63 8.99 22.85 2.77 30.5 2.77C38.14 2.77 44.36 8.99 44.36 16.63C44.36 17.4 44.98 18.02 45.75 18.02C46.51 18.02 47.13 17.4 47.13 16.63C47.13 13.62 46.32 10.81 44.91 8.37C45.19 8.35 45.48 8.31 45.75 8.31C52.63 8.31 58.22 13.91 58.22 20.79C58.22 25.73 55.3 30.21 50.76 32.2Z" fill="#FFFFFF" fill-opacity="1.000000" fill-rule="nonzero"/>
</svg>
