<svg width="98.000000" height="112.000000" viewBox="0 0 98 112" fill="none" xmlns="http://www.w3.org/2000/svg" xmlns:xlink="http://www.w3.org/1999/xlink">
	<desc>
			Created with Pixso.
	</desc>
	<defs>
		<linearGradient x1="4.741951" y1="5.568169" x2="94.048409" y2="87.977257" id="paint_linear_464_907_0" gradientUnits="userSpaceOnUse">
			<stop stop-color="#618967"/>
			<stop offset="1.000000" stop-color="#72A479"/>
		</linearGradient>
	</defs>
	<circle id="Ellipse 47" cx="49.000000" cy="49.000000" r="49.000000" fill="url(#paint_linear_464_907_0)" fill-opacity="1.000000"/>
	<path id="МЫ ЗДЕСЬ!" d="M39.73 37.37L42.29 46L44.85 46L47.49 37.39L47.55 37.39C47.54 37.6 47.53 37.91 47.52 38.31C47.5 38.71 47.48 39.13 47.47 39.57C47.45 40.01 47.44 40.42 47.44 40.78L47.44 46L49.97 46L49.97 34.57L46.31 34.57L43.68 43.02L43.62 43.02L41.07 34.57L37.39 34.57L37.39 46L39.83 46L39.83 40.84C39.83 40.46 39.82 40.04 39.79 39.58Q39.76 38.89 39.72 38.29C39.7 37.89 39.68 37.58 39.67 37.37L39.73 37.37ZM52.66 34.57L52.66 46L56.08 46Q58.4 46 59.57 45.01C60.35 44.35 60.74 43.45 60.74 42.28Q60.74 41.42 60.4 40.72Q60.33 40.59 60.26 40.48Q60.23 40.42 60.19 40.37Q59.71 39.66 58.8 39.25C58.14 38.95 57.3 38.8 56.28 38.8L55.38 38.8L55.38 34.57L52.66 34.57ZM61.86 34.57L61.86 46L64.6 46L64.6 34.57L61.86 34.57ZM57.5 43.46C57.16 43.69 56.69 43.8 56.08 43.8L55.38 43.8L55.38 40.99L56.05 40.99C56.65 40.99 57.12 41.09 57.48 41.29Q57.63 41.38 57.74 41.51Q58 41.82 58 42.35C58 42.86 57.83 43.23 57.5 43.46ZM75.97 56.36L78.51 56.36L78.28 64.51L76.21 64.51L75.97 56.36ZM30.78 61.08C31.29 60.62 31.54 60.01 31.54 59.24C31.54 58.69 31.38 58.2 31.04 57.78C30.71 57.36 30.24 57.02 29.63 56.78C29.02 56.54 28.28 56.41 27.42 56.41C26.4 56.41 25.54 56.52 24.84 56.73C24.13 56.93 23.48 57.24 22.87 57.64L24.04 59.48C24.46 59.2 24.93 58.99 25.42 58.84Q25.54 58.81 25.67 58.77Q26.3 58.62 26.97 58.62C27.61 58.62 28.08 58.72 28.38 58.92C28.69 59.11 28.84 59.38 28.84 59.71C28.84 59.97 28.75 60.2 28.59 60.4C28.42 60.59 28.13 60.73 27.7 60.83C27.27 60.92 26.66 60.97 25.86 60.97L24.79 60.97L24.79 63.13L25.99 63.13C26.99 63.13 27.77 63.24 28.33 63.47C28.89 63.69 29.17 64.04 29.17 64.51Q29.17 64.86 29.02 65.14Q28.87 65.41 28.56 65.6C28.15 65.84 27.46 65.96 26.5 65.96C26.15 65.96 25.76 65.94 25.33 65.88Q24.68 65.79 24.05 65.62Q23.43 65.45 22.95 65.21L22.95 67.53Q23.67 67.82 24.7 67.99C25.39 68.1 26.2 68.16 27.13 68.16Q29.48 68.16 30.7 67.19C31.52 66.55 31.93 65.74 31.93 64.75Q31.93 64.06 31.64 63.53Q31.44 63.17 31.12 62.89C30.58 62.41 29.79 62.12 28.74 62.03L28.74 61.98C29.6 61.84 30.27 61.54 30.78 61.08ZM58.49 59.64C58.94 58.99 59.59 58.67 60.42 58.67C60.87 58.67 61.31 58.74 61.74 58.89C62.16 59.03 62.59 59.2 63.01 59.39L63.86 57.21C63.32 56.94 62.75 56.75 62.16 56.61C61.57 56.48 60.99 56.41 60.44 56.41C59.26 56.41 58.27 56.66 57.46 57.17C56.65 57.67 56.04 58.36 55.62 59.25C55.21 60.13 55 61.15 55 62.3Q55 64.06 55.55 65.37C55.92 66.25 56.49 66.93 57.26 67.42C58.02 67.91 59.02 68.16 60.23 68.16C60.83 68.16 61.38 68.11 61.88 68.01C62.39 67.91 62.9 67.76 63.42 67.55L63.42 65.24C62.89 65.43 62.4 65.59 61.93 65.71C61.46 65.84 60.98 65.9 60.5 65.9C59.57 65.9 58.89 65.59 58.45 64.98C58.02 64.36 57.8 63.48 57.8 62.32C57.8 61.19 58.03 60.29 58.49 59.64ZM43.4 65.74L43.4 56.57L36.29 56.57C36.09 58.48 35.76 60.19 35.29 61.69C34.83 63.2 34.27 64.54 33.62 65.74L32.72 65.74L32.72 71.42L35.37 71.42L35.37 68L42.29 68L42.29 71.42L44.94 71.42L44.94 65.74L43.4 65.74ZM46.58 68L53.25 68L53.25 65.76L49.3 65.76L49.3 63.18L52.97 63.18L52.97 60.97L49.3 60.97L49.3 58.78L53.25 58.78L53.25 56.57L46.58 56.57L46.58 68ZM65.75 56.57L65.75 68L69.34 68Q71.67 68 72.84 67.01C73.62 66.35 74.01 65.45 74.01 64.28C74.01 63.6 73.85 63 73.53 62.48C73.21 61.95 72.71 61.54 72.05 61.25C71.38 60.95 70.54 60.8 69.51 60.8L68.47 60.8L68.47 56.57L65.75 56.57ZM37.77 62.31Q38.28 60.49 38.47 58.83L40.66 58.83L40.66 65.74L36.5 65.74C37 64.66 37.43 63.52 37.77 62.31ZM70.75 65.46C70.41 65.69 69.93 65.8 69.3 65.8L68.47 65.8L68.47 62.99L69.24 62.99C69.85 62.99 70.33 63.09 70.7 63.29C71.07 63.5 71.25 63.85 71.25 64.35Q71.25 64.93 70.97 65.26Q70.87 65.37 70.75 65.46ZM78.61 66.78C78.6 67.53 77.97 68.14 77.24 68.14C76.49 68.14 75.87 67.53 75.88 66.78C75.87 66.03 76.49 65.43 77.24 65.43C77.97 65.43 78.6 66.03 78.61 66.78Z" fill="#FFFFFF" fill-opacity="1.000000" fill-rule="evenodd"/>
	<path id="Polygon 3" d="M48.5 112L60.19 96.25L36.8 96.25L48.5 112Z" fill="#6D9B74" fill-opacity="1.000000" fill-rule="evenodd"/>
</svg>
