<svg width="19.000000" height="19.000000" viewBox="0 0 19 19" fill="none" xmlns="http://www.w3.org/2000/svg" xmlns:xlink="http://www.w3.org/1999/xlink">
	<desc>
			Created with Pixso.
	</desc>
	<defs/>
	<path id="Vector" d="M10.52 10.47C10.21 10.29 9.79 10.29 9.45 10.29L8.32 10.29L8.32 12.62L9.35 12.62C9.74 12.62 10.23 12.64 10.56 12.41C10.86 12.21 11.03 11.81 11.03 11.42C11.03 11.07 10.82 10.64 10.52 10.47ZM10.09 8.48C10.34 8.29 10.48 7.95 10.48 7.63C10.48 7.29 10.32 6.96 10.03 6.79C9.72 6.61 9.17 6.65 8.81 6.65L8.32 6.65L8.32 8.7L8.97 8.7C9.34 8.7 9.78 8.72 10.09 8.48ZM15.66 0L3.33 0C1.49 0 0 1.49 0 3.33L0 15.66C0 17.5 1.49 19 3.33 19L15.66 19C17.5 19 19 17.5 19 15.66L19 3.33C19 1.49 17.5 0 15.66 0ZM10.01 14.35L6.13 14.35L6.13 4.98L10.37 4.98C11.6 4.98 12.73 5.76 12.73 7.14C12.73 8.21 12.14 8.94 11.38 9.16L11.38 9.19C12.5 9.42 13.31 10.04 13.31 11.51C13.31 12.87 12.38 14.35 10.01 14.35Z" fill="#FFFFFF" fill-opacity="1.000000" fill-rule="nonzero"/>
</svg>
