<svg width="19.000000" height="19.000000" viewBox="0 0 19 19" fill="none" xmlns="http://www.w3.org/2000/svg" xmlns:xlink="http://www.w3.org/1999/xlink">
	<desc>
			Created with Pixso.
	</desc>
	<defs/>
	<path id="Vector" d="M16.62 0L2.37 0C1.06 0 0 1.06 0 2.37L0 16.62C0 17.93 1.06 19 2.37 19L9.5 19L9.5 12.46L7.12 12.46L7.12 9.5L9.5 9.5L9.5 7.12C9.5 5.15 11.09 3.56 13.06 3.56L15.43 3.56L15.43 6.53L14.25 6.53C13.59 6.53 13.06 6.46 13.06 7.12L13.06 9.5L16.03 9.5L14.84 12.46L13.06 12.46L13.06 19L16.62 19C17.93 19 19 17.93 19 16.62L19 2.37C19 1.06 17.93 0 16.62 0Z" fill="#FFFFFF" fill-opacity="1.000000" fill-rule="nonzero"/>
</svg>
