<svg width="24.000000" height="24.000000" viewBox="0 0 24 24" fill="none" xmlns="http://www.w3.org/2000/svg" xmlns:xlink="http://www.w3.org/1999/xlink">
	<desc>
			Created with Pixso.
	</desc>
	<defs/>
	<rect id="Iconly/Light/Buy" width="24.000000" height="24.000000" fill="#FFFFFF" fill-opacity="0"/>
	<path id="Stroke 1" d="M8.18 20.58C8.18 21 7.84 21.34 7.42 21.34C7 21.34 6.65 21 6.65 20.58C6.65 20.16 7 19.82 7.42 19.82C7.84 19.82 8.18 20.16 8.18 20.58Z" stroke="#FFFFFF" stroke-opacity="1.000000" stroke-width="1.500000" stroke-linejoin="round"/>
	<path id="Stroke 3" d="M19.43 20.58C19.43 21 19.09 21.34 18.67 21.34C18.25 21.34 17.91 21 17.91 20.58C17.91 20.16 18.25 19.82 18.67 19.82C19.09 19.82 19.43 20.16 19.43 20.58Z" stroke="#FFFFFF" stroke-opacity="1.000000" stroke-width="1.500000" stroke-linejoin="round"/>
	<path id="Stroke 5" d="M2.75 3.25L4.83 3.61L5.79 15.08C5.87 16.01 6.65 16.73 7.58 16.73L18.5 16.73C19.39 16.73 20.15 16.07 20.28 15.18L21.23 8.63C21.35 7.82 20.72 7.09 19.9 7.09L5.16 7.09" stroke="#FFFFFF" stroke-opacity="1.000000" stroke-width="1.500000" stroke-linejoin="round" stroke-linecap="round"/>
	<path id="Stroke 7" d="M14.12 10.79L16.89 10.79" stroke="#FFFFFF" stroke-opacity="1.000000" stroke-width="1.500000" stroke-linejoin="round" stroke-linecap="round"/>
</svg>
