<svg width="19.000000" height="19.000000" viewBox="0 0 19 19" fill="none" xmlns="http://www.w3.org/2000/svg" xmlns:xlink="http://www.w3.org/1999/xlink">
	<desc>
			Created with Pixso.
	</desc>
	<defs>
		<clipPath id="clip464_897">
			<rect id="video-play-button" width="19.000000" height="19.000000" fill="white" fill-opacity="0"/>
		</clipPath>
	</defs>
	<rect id="video-play-button" width="19.000000" height="19.000000" fill="#FFFFFF" fill-opacity="0"/>
	<g clip-path="url(#clip464_897)">
		<path id="Vector" d="M15.43 0L3.56 0C1.59 0 0 1.59 0 3.56L0 15.43C0 17.4 1.59 19 3.56 19L15.43 19C17.4 19 19 17.4 19 15.43L19 3.56C19 1.59 17.4 0 15.43 0ZM15.33 11.62C15.27 12.41 14.67 13.42 13.83 13.57C11.14 13.78 7.95 13.75 5.16 13.57C4.3 13.46 3.72 12.41 3.66 11.62C3.52 9.96 3.52 9.02 3.66 7.36C3.72 6.57 4.31 5.53 5.16 5.43C7.92 5.2 11.12 5.25 13.83 5.43C14.79 5.47 15.27 6.46 15.33 7.25C15.46 8.91 15.46 9.96 15.33 11.62Z" fill="#FFFFFF" fill-opacity="1.000000" fill-rule="nonzero"/>
		<path id="Vector" d="M8.31 11.87L11.87 9.5L8.31 7.12L8.31 11.87Z" fill="#FFFFFF" fill-opacity="1.000000" fill-rule="nonzero"/>
	</g>
</svg>
