<svg width="38.673828" height="60.000000" viewBox="0 0 38.6738 60" fill="none" xmlns="http://www.w3.org/2000/svg" xmlns:xlink="http://www.w3.org/1999/xlink">
	<desc>
			Created with Pixso.
	</desc>
	<defs/>
	<path id="Vector" d="M36.91 24.72L22.35 24.72L34.92 2.62C35.23 2.08 35.23 1.41 34.91 0.87C34.6 0.33 34.02 0 33.39 0L12.3 0C11.54 0 10.87 0.48 10.63 1.2L0.08 32.96C-0.09 33.49 0 34.08 0.33 34.54C0.66 35 1.19 35.27 1.75 35.27L16.67 35.27L7.17 57.55C6.83 58.34 7.12 59.26 7.84 59.72C8.57 60.18 9.53 60.05 10.1 59.4L38.23 27.64C39.23 26.51 38.42 24.72 36.91 24.72ZM14.65 48.96L20.95 34.2C21.44 33.04 20.59 31.75 19.33 31.75L4.19 31.75L13.57 3.51L30.37 3.51L17.8 25.61C17.14 26.78 17.98 28.24 19.33 28.24L33 28.24L14.65 48.96Z" fill="#79B282" fill-opacity="1.000000" fill-rule="nonzero"/>
</svg>
