<svg width="19.000000" height="19.000000" viewBox="0 0 19 19" fill="none" xmlns="http://www.w3.org/2000/svg" xmlns:xlink="http://www.w3.org/1999/xlink">
	<desc>
			Created with Pixso.
	</desc>
	<defs>
		<clipPath id="clip464_910">
			<rect id="instagram" width="19.000000" height="19.000000" fill="white" fill-opacity="0"/>
		</clipPath>
	</defs>
	<rect id="instagram" width="19.000000" height="19.000000" fill="#FFFFFF" fill-opacity="0"/>
	<g clip-path="url(#clip464_910)">
		<path id="Vector" d="M11.18 8.27C10.8 7.75 10.18 7.4 9.49 7.4C8.8 7.4 8.18 7.75 7.8 8.27C7.56 8.62 7.41 9.04 7.41 9.5C7.41 10.64 8.34 11.57 9.49 11.57C10.63 11.57 11.57 10.64 11.57 9.5C11.57 9.04 11.42 8.62 11.18 8.27Z" fill="#FFFFFF" fill-opacity="1.000000" fill-rule="nonzero"/>
		<path id="Vector" d="M12.49 8.29C12.64 8.59 12.73 9.07 12.73 9.5C12.73 11.27 11.28 12.73 9.49 12.73C7.7 12.73 6.25 11.29 6.25 9.5C6.25 9.06 6.34 8.59 6.49 8.29L4.67 8.29L4.67 13.13C4.67 13.76 5.22 14.32 5.86 14.32L13.12 14.32C13.75 14.32 14.31 13.76 14.31 13.13L14.31 8.29L12.49 8.29Z" fill="#FFFFFF" fill-opacity="1.000000" fill-rule="nonzero"/>
		<path id="Vector" d="M13.77 4.94L12.02 4.94L12.02 6.95L14.01 6.95L14.01 5.2L14.01 4.93L13.77 4.94Z" fill="#FFFFFF" fill-opacity="1.000000" fill-rule="nonzero"/>
		<path id="Vector" d="M14.22 0L4.76 0C2.13 0 0 2.14 0 4.77L0 14.24C0 16.85 2.13 18.99 4.76 18.99L14.23 18.99C16.86 18.99 19 16.85 19 14.23L19 4.77C18.98 2.14 16.84 0 14.22 0ZM15.36 8.28L15.36 13.13C15.36 14.39 14.38 15.37 13.12 15.37L5.86 15.37C4.59 15.37 3.61 14.39 3.61 13.13L3.61 8.28L3.61 5.87C3.61 4.6 4.59 3.62 5.86 3.62L13.12 3.62C14.38 3.62 15.36 4.6 15.36 5.87L15.36 8.28Z" fill="#FFFFFF" fill-opacity="1.000000" fill-rule="nonzero"/>
	</g>
</svg>
