<svg width="70.000000" height="60.355225" viewBox="0 0 70 60.3552" fill="none" xmlns="http://www.w3.org/2000/svg" xmlns:xlink="http://www.w3.org/1999/xlink">
	<desc>
			Created with Pixso.
	</desc>
	<defs/>
	<path id="Vector" d="M29.5 54.43C27.97 54.97 26.38 55.31 24.78 55.45C25.92 54.89 27.05 54.16 28.15 53.26C28.59 52.9 28.66 52.26 28.3 51.82C27.95 51.38 27.3 51.31 26.86 51.67C24.04 53.95 21.51 54.76 19.42 54.85C21.01 53.36 22.92 50.67 25.17 46.06C25.42 45.55 25.21 44.94 24.7 44.69C24.19 44.44 23.58 44.65 23.33 45.16C19.96 52.05 17.36 54.4 16.26 54.4C16.19 54.4 16.12 54.39 16.07 54.37C15.7 54.24 15.46 53.66 15.36 53.33C13.56 47.72 18.76 28.05 25.63 18.46L30.26 12.01C30.52 11.64 30.78 11.12 30.99 10.54L31.14 10.14L31.2 10.17L31.08 10.57C30.89 11.16 30.78 11.73 30.76 12.18L30.48 19.92C30.46 20.49 30.9 20.96 31.47 20.98C31.48 20.98 31.49 20.99 31.5 20.99C32.05 20.99 32.51 20.55 32.53 20L32.77 13.42L34.2 17.56C34.34 17.98 34.74 18.25 35.17 18.25C35.28 18.25 35.39 18.23 35.5 18.19C36.04 18.01 36.32 17.43 36.14 16.89L36.09 16.74L36.09 16.75C36.38 17.24 37.01 17.39 37.5 17.1C37.99 16.81 38.14 16.18 37.85 15.69L36.37 13.25C36.1 12.8 36.02 12.24 36.15 11.73L38.47 2.47C38.62 1.85 38.48 1.21 38.07 0.72C37.66 0.22 37.06 -0.04 36.42 0L30.99 0.3C30.24 0.35 29.58 0.8 29.28 1.49L26.27 8.36C26.06 8.84 25.66 9.23 25.16 9.42L14.54 13.53C9.87 15.34 6.05 18.44 3.49 22.49C1.11 26.25 -0.09 30.66 0 35.22C0.09 39.78 1.47 44.13 4 47.8C6.72 51.74 10.66 54.69 15.4 56.31C17.9 57.16 20.45 57.59 22.97 57.59C25.42 57.59 27.85 57.18 30.18 56.37C30.71 56.18 31 55.6 30.81 55.06C30.62 54.53 30.04 54.25 29.5 54.43ZM31.15 2.35L36.46 2.05L34.67 9.18L29 7.25L31.15 2.35ZM5.69 46.63C3.39 43.3 2.14 39.34 2.05 35.18C1.97 31.02 3.07 27.01 5.22 23.59C7.55 19.91 11.02 17.09 15.28 15.44L23.25 12.36L18.92 15.19C15.69 17.31 12.86 20.46 10.73 24.3C8.76 27.85 7.42 31.9 6.85 36.01C6.77 36.57 7.16 37.09 7.72 37.17C7.77 37.17 7.82 37.18 7.86 37.18C8.37 37.18 8.81 36.8 8.88 36.29C10.01 28.1 14.29 20.68 20.05 16.91L27.91 11.76L23.96 17.27C20.71 21.8 17.46 29.11 15.28 36.82C13.37 43.53 12.6 49.29 13.12 52.69C12.1 51.83 11.23 50.71 10.52 49.35C9.29 46.97 8.62 43.92 8.6 40.52C8.59 39.96 8.13 39.5 7.56 39.51C7 39.51 6.54 39.97 6.54 40.54C6.57 44.14 7.26 47.32 8.51 49.89C7.46 48.91 6.51 47.83 5.69 46.63Z" fill="#FFFFFF" fill-opacity="1.000000" fill-rule="nonzero"/>
	<path id="Vector" d="M48.15 16.65C36.1 16.65 26.3 26.45 26.3 38.5C26.3 50.55 36.1 60.35 48.15 60.35C60.19 60.35 70 50.55 70 38.5C70 26.45 60.19 16.65 48.15 16.65ZM48.15 58.3C37.23 58.3 28.35 49.42 28.35 38.5C28.35 27.58 37.23 18.7 48.15 18.7C59.06 18.7 67.94 27.58 67.94 38.5C67.94 49.42 59.06 58.3 48.15 58.3Z" fill="#FFFFFF" fill-opacity="1.000000" fill-rule="nonzero"/>
	<path id="Vector" d="M48.14 20.78C38.37 20.78 30.42 28.73 30.42 38.5C30.42 48.27 38.37 56.22 48.14 56.22C57.91 56.22 65.86 48.27 65.86 38.5C65.86 28.73 57.91 20.78 48.14 20.78ZM48.14 54.17C39.5 54.17 32.48 47.14 32.48 38.5C32.48 29.86 39.5 22.83 48.14 22.83C56.78 22.83 63.81 29.86 63.81 38.5C63.81 47.14 56.78 54.17 48.14 54.17Z" fill="#FFFFFF" fill-opacity="1.000000" fill-rule="nonzero"/>
	<path id="Vector" d="M48.15 25.81C41.15 25.81 35.45 31.5 35.45 38.5C35.45 45.5 41.15 51.19 48.15 51.19C52.84 51.19 57.13 48.61 59.35 44.46C59.61 43.96 59.42 43.34 58.93 43.07C58.43 42.8 57.81 42.99 57.54 43.49C55.68 46.98 52.08 49.14 48.15 49.14C42.28 49.14 37.5 44.37 37.5 38.5C37.5 32.63 42.28 27.86 48.15 27.86C54.01 27.86 58.79 32.63 58.79 38.5C58.79 38.87 58.76 39.26 58.72 39.65C58.66 40.21 59.07 40.72 59.63 40.78C60.2 40.84 60.7 40.43 60.76 39.87C60.81 39.41 60.84 38.95 60.84 38.5C60.84 31.5 55.14 25.81 48.15 25.81Z" fill="#FFFFFF" fill-opacity="1.000000" fill-rule="nonzero"/>
	<path id="Vector" d="M40.76 38.5C40.76 42.57 44.08 45.88 48.14 45.88C52.21 45.88 55.52 42.57 55.52 38.5C55.52 34.43 52.21 31.12 48.14 31.12C44.08 31.12 40.76 34.43 40.76 38.5ZM53.47 38.5C53.47 41.44 51.08 43.83 48.14 43.83C45.21 43.83 42.82 41.44 42.82 38.5C42.82 35.56 45.21 33.17 48.14 33.17C51.08 33.17 53.47 35.56 53.47 38.5Z" fill="#FFFFFF" fill-opacity="1.000000" fill-rule="nonzero"/>
</svg>
