<svg width="191.000000" height="33.000000" viewBox="0 0 191 33" fill="none" xmlns="http://www.w3.org/2000/svg" xmlns:xlink="http://www.w3.org/1999/xlink">
	<desc>
			Created with Pixso.
	</desc>
	<defs>
		<linearGradient id="paint_linear_2761_261_0" x1="1.000023" y1="20.999939" x2="185.500000" y2="27.499985" gradientUnits="userSpaceOnUse">
			<stop stop-color="#5E4CB3"/>
			<stop offset="0.000100" stop-color="#FFFFFF"/>
			<stop offset="0.250040" stop-color="#9D61FF"/>
		</linearGradient>
	</defs>
	<path id="IBRAIN" d="M8.86 -0.6L-0.64 -0.6L-0.64 33L8.86 33L8.86 -0.6ZM48.85 18.06Q47.29 16.34 44.81 15.48Q46.51 14.61 47.6 13.25Q47.9 12.88 48.15 12.48Q48.45 11.99 48.67 11.47Q49.32 9.96 49.32 8.17Q49.32 6.25 48.56 4.71Q47.72 3.02 45.96 1.78Q42.6 -0.6 36.17 -0.6L18.99 -0.6L18.99 33L37.13 33Q43.85 33 47.4 30.59Q49.08 29.46 49.96 27.88Q50.96 26.11 50.96 23.78Q50.96 21.45 49.98 19.64Q49.69 19.11 49.32 18.63Q49.09 18.33 48.85 18.06ZM68.77 24.07L73.95 24.07L80.04 33L90.22 33L82.97 22.44Q85.52 21.2 87.12 19.2Q87.5 18.72 87.83 18.19Q88.02 17.9 88.18 17.59Q89.54 15.08 89.54 11.83Q89.54 8.52 88.15 5.96Q87.95 5.59 87.72 5.23Q87.34 4.65 86.89 4.12Q85.2 2.11 82.54 0.91Q79.18 -0.6 74.61 -0.6L59.26 -0.6L59.26 33L68.77 33L68.77 24.07ZM106.44 26.47L120.65 26.47L123.29 33L133.18 33L118.3 -0.6L108.94 -0.6L94.11 33L103.8 33L106.44 26.47ZM148.73 -0.6L139.23 -0.6L139.23 33L148.73 33L148.73 -0.6ZM190.83 33L190.83 -0.6L181.52 -0.6L181.52 17.3L166.68 -0.6L158.86 -0.6L158.86 33L168.17 33L168.17 15.09L183 33L190.83 33ZM28.4 12.73L28.4 6.26L34.93 6.26Q38.24 6.26 39.26 7.79Q39.72 8.48 39.72 9.48Q39.72 10.51 39.24 11.21Q38.21 12.73 34.93 12.73L28.4 12.73ZM79.11 8.9Q79.95 10.07 79.95 11.83Q79.95 13.58 79.12 14.73Q78.84 15.13 78.46 15.45Q76.97 16.72 74.04 16.72L68.77 16.72L68.77 6.89L74.04 6.89Q76.97 6.89 78.46 8.19Q78.83 8.51 79.11 8.9ZM113.55 8.7L117.87 19.46L109.23 19.46L113.55 8.7ZM40.84 24.54Q39.76 26.13 36.36 26.13L28.4 26.13L28.4 19.32L36.36 19.32Q39.77 19.32 40.85 20.91Q41.35 21.64 41.35 22.72Q41.35 23.8 40.84 24.54Z" fill="url(#paint_linear_2761_261_0)" fill-opacity="1.000000" fill-rule="evenodd"/>
	<path id="IBRAIN" d="M8.86 -0.6L-0.64 -0.6L-0.64 33L8.86 33L8.86 -0.6ZM48.85 18.06Q47.29 16.34 44.81 15.48Q46.51 14.61 47.6 13.25Q47.9 12.88 48.15 12.48Q48.45 11.99 48.67 11.47Q49.32 9.96 49.32 8.17Q49.32 6.25 48.56 4.71Q47.72 3.02 45.96 1.78Q42.6 -0.6 36.17 -0.6L18.99 -0.6L18.99 33L37.13 33Q43.85 33 47.4 30.59Q49.08 29.46 49.96 27.88Q50.96 26.11 50.96 23.78Q50.96 21.45 49.98 19.64Q49.69 19.11 49.32 18.63Q49.09 18.33 48.85 18.06ZM68.77 24.07L73.95 24.07L80.04 33L90.22 33L82.97 22.44Q85.52 21.2 87.12 19.2Q87.5 18.72 87.83 18.19Q88.02 17.9 88.18 17.59Q89.54 15.08 89.54 11.83Q89.54 8.52 88.15 5.96Q87.95 5.59 87.72 5.23Q87.34 4.65 86.89 4.12Q85.2 2.11 82.54 0.91Q79.18 -0.6 74.61 -0.6L59.26 -0.6L59.26 33L68.77 33L68.77 24.07ZM106.44 26.47L120.65 26.47L123.29 33L133.18 33L118.3 -0.6L108.94 -0.6L94.11 33L103.8 33L106.44 26.47ZM148.73 -0.6L139.23 -0.6L139.23 33L148.73 33L148.73 -0.6ZM190.83 33L190.83 -0.6L181.52 -0.6L181.52 17.3L166.68 -0.6L158.86 -0.6L158.86 33L168.17 33L168.17 15.09L183 33L190.83 33ZM28.4 12.73L28.4 6.26L34.93 6.26Q38.24 6.26 39.26 7.79Q39.72 8.48 39.72 9.48Q39.72 10.51 39.24 11.21Q38.21 12.73 34.93 12.73L28.4 12.73ZM79.11 8.9Q79.95 10.07 79.95 11.83Q79.95 13.58 79.12 14.73Q78.84 15.13 78.46 15.45Q76.97 16.72 74.04 16.72L68.77 16.72L68.77 6.89L74.04 6.89Q76.97 6.89 78.46 8.19Q78.83 8.51 79.11 8.9ZM113.55 8.7L117.87 19.46L109.23 19.46L113.55 8.7ZM40.84 24.54Q39.76 26.13 36.36 26.13L28.4 26.13L28.4 19.32L36.36 19.32Q39.77 19.32 40.85 20.91Q41.35 21.64 41.35 22.72Q41.35 23.8 40.84 24.54Z" fill="#000000" fill-opacity="0" fill-rule="evenodd"/>
</svg>
